<?xml version="1.0" encoding="utf-8"?>
<!-- Generator: Adobe Illustrator 24.3.0, SVG Export Plug-In . SVG Version: 6.00 Build 0)  -->
<svg fill="#5c1c72" version="1.1" id="Layer_1" xmlns="http://www.w3.org/2000/svg" xmlns:xlink="http://www.w3.org/1999/xlink" x="0px" y="0px"
	 viewBox="0 0 512 512" style="enable-background:new 0 0 512 512;" xml:space="preserve">
<g id="battery_life">
	<path d="M472,144H40c-13.3,0-24,10.7-24,24v304c0,13.3,10.7,24,24,24h432c13.3,0,24-10.7,24-24V168C496,154.7,485.3,144,472,144z
		 M480,472c0,4.4-3.6,8-8,8H40c-4.4,0-8-3.6-8-8V168c0-4.4,3.6-8,8-8h432c4.4,0,8,3.6,8,8V472z"/>
	<path d="M440,232h-16v-24c0-4.4-3.6-8-8-8h-48c-4.4,0-8,3.6-8,8v24h-16c-13.3,0-24,10.7-24,24v160c0,13.3,10.7,24,24,24h96
		c13.3,0,24-10.7,24-24V256C464,242.7,453.3,232,440,232z M376,216h32v16h-32V216z M448,416c0,4.4-3.6,8-8,8h-96c-4.4,0-8-3.6-8-8
		V256c0-4.4,3.6-8,8-8h96c4.4,0,8,3.6,8,8V416z"/>
	<path d="M432,368h-80c-4.4,0-8,3.6-8,8v32c0,4.4,3.6,8,8,8h80c4.4,0,8-3.6,8-8v-32C440,371.6,436.4,368,432,368z M424,400h-64v-16
		h64V400z"/>
	<path d="M432,312h-80c-4.4,0-8,3.6-8,8v32c0,4.4,3.6,8,8,8h80c4.4,0,8-3.6,8-8v-32C440,315.6,436.4,312,432,312z M424,344h-64v-16
		h64V344z"/>
	<path d="M432,256h-80c-4.4,0-8,3.6-8,8v32c0,4.4,3.6,8,8,8h80c4.4,0,8-3.6,8-8v-32C440,259.6,436.4,256,432,256z M424,288h-64v-16
		h64V288z"/>
	<path d="M488,40h-40V24c0-4.4-3.6-8-8-8h-48c-4.4,0-8,3.6-8,8v16H128V24c0-4.4-3.6-8-8-8H72c-4.4,0-8,3.6-8,8v16H24
		c-4.4,0-8,3.6-8,8v56c0,13.3,10.7,24,24,24h432c13.3,0,24-10.7,24-24V48C496,43.6,492.4,40,488,40z M400,32h32v32
		c0,8.8-7.2,16-16,16s-16-7.2-16-16V32z M80,32h32v32c0,8.8-7.2,16-16,16s-16-7.2-16-16V32z M480,104c0,4.4-3.6,8-8,8H40
		c-4.4,0-8-3.6-8-8V56h32v8c0,17.7,14.3,32,32,32s32-14.3,32-32v-8h256v8c0,17.7,14.3,32,32,32s32-14.3,32-32v-8h32V104z"/>
	<path d="M120,192H72c-4.4,0-8,3.6-8,8v48c0,4.4,3.6,8,8,8h48c4.4,0,8-3.6,8-8v-48C128,195.6,124.4,192,120,192z M112,240H80v-32h32
		V240z"/>
	<path d="M176,192c-17.7,0-32,14.3-32,32s14.3,32,32,32s32-14.3,32-32S193.7,192,176,192z M176,240c-8.8,0-16-7.2-16-16
		s7.2-16,16-16s16,7.2,16,16S184.8,240,176,240z"/>
	<path d="M280,192h-48c-4.4,0-8,3.6-8,8v48c0,4.4,3.6,8,8,8h48c4.4,0,8-3.6,8-8v-48C288,195.6,284.4,192,280,192z M272,240h-32v-32
		h32V240z"/>
	<path d="M120,288H72c-4.4,0-8,3.6-8,8v48c0,4.4,3.6,8,8,8h48c4.4,0,8-3.6,8-8v-48C128,291.6,124.4,288,120,288z M112,336H80v-32h32
		V336z"/>
	<path d="M200,288h-48c-4.4,0-8,3.6-8,8v48c0,4.4,3.6,8,8,8h48c4.4,0,8-3.6,8-8v-48C208,291.6,204.4,288,200,288z M192,336h-32v-32
		h32V336z"/>
	<path d="M256,288c-17.7,0-32,14.3-32,32s14.3,32,32,32s32-14.3,32-32S273.7,288,256,288z M256,336c-8.8,0-16-7.2-16-16
		s7.2-16,16-16c8.8,0,16,7.2,16,16S264.8,336,256,336z"/>
	<path d="M120,384H72c-4.4,0-8,3.6-8,8v48c0,4.4,3.6,8,8,8h48c4.4,0,8-3.6,8-8v-48C128,387.6,124.4,384,120,384z M112,432H80v-32h32
		V432z"/>
	<path d="M200,384h-48c-4.4,0-8,3.6-8,8v48c0,4.4,3.6,8,8,8h48c4.4,0,8-3.6,8-8v-48C208,387.6,204.4,384,200,384z M192,432h-32v-32
		h32V432z"/>
	<path d="M280,384h-48c-4.4,0-8,3.6-8,8v48c0,4.4,3.6,8,8,8h48c4.4,0,8-3.6,8-8v-48C288,387.6,284.4,384,280,384z M272,432h-32v-32
		h32V432z"/>
</g>
</svg>
