<?xml version="1.0" encoding="utf-8"?>
<!-- Generator: Adobe Illustrator 24.3.0, SVG Export Plug-In . SVG Version: 6.00 Build 0)  -->
<svg version="1.1" id="Layer_1" xmlns="http://www.w3.org/2000/svg" xmlns:xlink="http://www.w3.org/1999/xlink" x="0px" y="0px"
	 viewBox="0 0 300 300" style="enable-background:new 0 0 300 300;" xml:space="preserve">
<style type="text/css">
	.st0{fill:#5D3184;}
</style>
<desc>Created with Sketch.</desc>
<g>
	<path class="st0" d="M168.9,143.8H275c3.5,0,6.2,2.8,6.2,6.2c0,3.5-2.8,6.2-6.2,6.2H168.9c3.2,55.8,49.5,100,106.1,100
		c3.5,0,6.2,2.8,6.2,6.2s-2.8,6.2-6.2,6.2c-65.6,0-118.8-53.2-118.8-118.8S209.4,31.2,275,31.2c3.5,0,6.2,2.8,6.2,6.2
		c0,3.5-2.8,6.2-6.2,6.2C218.4,43.7,172.2,88,168.9,143.8z M137.5,31.2c3.5,0,6.2,2.8,6.2,6.2c0,3.5-2.8,6.2-6.2,6.2
		C78.8,43.7,31.2,91.3,31.2,150s47.6,106.2,106.2,106.2c3.5,0,6.2,2.8,6.2,6.2s-2.8,6.2-6.2,6.2c-65.6,0-118.8-53.2-118.8-118.8
		S71.9,31.2,137.5,31.2z"/>
</g>
</svg>
