<?xml version="1.0" encoding="iso-8859-1"?>
<!-- Generator: Adobe Illustrator 19.0.0, SVG Export Plug-In . SVG Version: 6.00 Build 0)  -->
<svg version="1.1" id="Capa_1" xmlns="http://www.w3.org/2000/svg" xmlns:xlink="http://www.w3.org/1999/xlink" x="0px" y="0px"
	 viewBox="0 0 512 512" style="enable-background:new 0 0 512 512;" xml:space="preserve">
<g>
	<g>
		<path d="M424.525,82.726c-3.394-4.384-9.7-5.186-14.084-1.794c-4.384,3.394-5.187,9.7-1.794,14.084
			c26.343,34.032,40.266,74.828,40.266,117.976v29.439c-3.022-1.038-6.258-1.61-9.628-1.61h-27.694
			c-2.856-10.386-12.381-18.04-23.666-18.04h-27.518c-13.53,0-24.536,11.007-24.536,24.535V378.98
			c0,13.534,11.007,24.546,24.536,24.546h27.518c1.302,0,2.579-0.104,3.827-0.3c-4.803,37.652-37.028,66.86-75.969,66.86h-5.307
			c-2.461-12.432-13.445-21.835-26.587-21.835h-30.089c-14.946,0-27.106,12.16-27.106,27.106v9.537
			c0,14.946,12.159,27.106,27.106,27.106h30.089c13.142,0,24.127-9.404,26.587-21.835h5.307c53.313,0,96.689-43.369,96.689-96.678
			c0-2.062-0.623-3.979-1.691-5.573c0.311-0.794,0.583-1.607,0.811-2.438h27.693v0c16.379,0,29.706-13.322,29.706-29.696v-79.762
			v-63.026C468.992,165.355,453.616,120.31,424.525,82.726z M290.917,484.894h-0.001c0,3.874-3.153,7.027-7.027,7.027h-30.088
			c-3.874,0-7.027-3.153-7.027-7.027v-9.537c0-3.874,3.153-7.027,7.027-7.027h30.089c3.874,0,7.027,3.153,7.027,7.027V484.894z
			 M392.393,250.86v124.577v3.544c0,2.464-2.004,4.467-4.467,4.467h-27.518c-2.458,0-4.457-2.004-4.457-4.467V247.316
			c0-2.458,2-4.456,4.457-4.456h27.518c2.464,0,4.467,1.999,4.467,4.456V250.86z M448.914,276.019v79.761
			c0,5.303-4.319,9.618-9.628,9.618h-26.815V260.899h26.815c5.309,0,9.628,4.319,9.628,9.628V276.019z"/>
	</g>
</g>
<g>
	<g>
		<path d="M380.03,39.82C343.72,13.77,300.83,0,256,0c-56.883,0-110.37,22.154-150.61,62.384
			c-40.228,40.238-62.382,93.725-62.382,150.608v63.026v79.761c0,16.375,13.326,29.696,29.706,29.696h27.693
			c2.855,10.392,12.381,18.051,23.667,18.051h27.518c13.53,0,24.536-11.012,24.536-24.546V247.316
			c0-13.529-11.007-24.535-24.536-24.535h-27.518c-11.285,0-20.81,7.655-23.666,18.04H72.714c-3.369,0-6.606,0.572-9.628,1.61
			v-29.44c0-51.521,20.066-99.966,56.501-136.411C156.034,40.145,204.479,20.078,256,20.078c40.606,0,79.448,12.468,112.326,36.055
			c4.504,3.233,10.777,2.201,14.009-2.305C385.567,49.324,384.534,43.051,380.03,39.82z M119.607,375.437V250.86v-3.544
			c0-2.458,2.004-4.456,4.467-4.456h27.518c2.458,0,4.457,1.999,4.457,4.456V378.98c0,2.464-2,4.467-4.457,4.467h-27.518
			c-2.464,0-4.467-2.004-4.467-4.467V375.437z M72.714,260.899h26.815v104.498H72.714c-5.309,0-9.628-4.315-9.628-9.618v-79.762
			v-5.492C63.086,265.218,67.405,260.899,72.714,260.899z"/>
	</g>
</g>
<g>
	<g>
		<path d="M396.215,56.22c-12.919,0-12.942,20.078,0,20.078C409.134,76.298,409.155,56.22,396.215,56.22z"/>
	</g>
</g>
<g>
</g>
<g>
</g>
<g>
</g>
<g>
</g>
<g>
</g>
<g>
</g>
<g>
</g>
<g>
</g>
<g>
</g>
<g>
</g>
<g>
</g>
<g>
</g>
<g>
</g>
<g>
</g>
<g>
</g>
</svg>
