<svg width="72" height="72" viewBox="0 0 72 72" fill="none" xmlns="http://www.w3.org/2000/svg">
<path d="M48.2796 38.9003C49.7591 38.8953 51.2124 38.5096 52.4996 37.7803C50.6873 42.4713 47.6815 46.6078 43.7796 49.7803C43.5564 49.9642 43.3716 50.1902 43.2357 50.4455C43.0998 50.7008 43.0155 50.9804 42.9876 51.2682C42.9598 51.5561 42.9889 51.8466 43.0733 52.1232C43.1577 52.3998 43.2958 52.6571 43.4796 52.8803C43.6635 53.1036 43.8895 53.2884 44.1448 53.4243C44.4001 53.5602 44.6797 53.6445 44.9675 53.6724C45.2554 53.7002 45.5459 53.6711 45.8225 53.5867C46.0991 53.5023 46.3564 53.3642 46.5796 53.1803C54.5796 46.6803 58.1396 37.6803 58.1396 32.1003C58.1259 30.1274 57.5379 28.2011 56.4476 26.5567C55.3572 24.9123 53.8117 23.621 51.9996 22.8403C50.8269 22.2722 49.5427 21.9717 48.2396 21.9603C47.0927 21.9046 45.9464 22.0824 44.8703 22.4829C43.7941 22.8834 42.8105 23.4982 41.9791 24.2902C41.1476 25.0822 40.4857 26.0348 40.0334 27.0903C39.5812 28.1458 39.3479 29.2821 39.3479 30.4303C39.3479 31.5786 39.5812 32.7149 40.0334 33.7704C40.4857 34.8258 41.1476 35.7784 41.9791 36.5704C42.8105 37.3624 43.7941 37.9773 44.8703 38.3778C45.9464 38.7783 47.0927 38.9561 48.2396 38.9003H48.2796Z" fill="white"/>
<path d="M26.0004 38.9C27.4801 38.8968 28.9338 38.5109 30.2204 37.78C28.4088 42.466 25.4109 46.6011 21.5204 49.78C21.2768 49.9555 21.0718 50.179 20.9179 50.4367C20.764 50.6944 20.6645 50.9809 20.6255 51.2785C20.5864 51.5762 20.6087 51.8786 20.6909 52.1673C20.7732 52.456 20.9136 52.7248 21.1036 52.9572C21.2936 53.1896 21.5292 53.3807 21.7958 53.5186C22.0624 53.6565 22.3544 53.7385 22.6539 53.7593C22.9533 53.7802 23.2539 53.7396 23.537 53.6399C23.8202 53.5403 24.08 53.3838 24.3004 53.18C32.3004 46.68 35.8604 37.68 35.8604 32.1C35.8509 30.1493 35.2801 28.2426 34.2161 26.6077C33.1521 24.9727 31.64 23.6786 29.8604 22.88C28.6579 22.2952 27.3374 21.9942 26.0004 22C24.8534 21.9442 23.7071 22.122 22.631 22.5225C21.5548 22.923 20.5712 23.5379 19.7398 24.3299C18.9083 25.1219 18.2464 26.0745 17.7941 27.1299C17.3419 28.1854 17.1086 29.3217 17.1086 30.47C17.1086 31.6182 17.3419 32.7545 17.7941 33.81C18.2464 34.8655 18.9083 35.8181 19.7398 36.6101C20.5712 37.4021 21.5548 38.0169 22.631 38.4174C23.7071 38.8179 24.8534 38.9957 26.0004 38.94V38.9Z" fill="white"/>
</svg>
