<?xml version="1.0" encoding="utf-8"?>
<!-- Generator: Adobe Illustrator 24.3.0, SVG Export Plug-In . SVG Version: 6.00 Build 0)  -->
<svg version="1.1" id="Layer_1" xmlns="http://www.w3.org/2000/svg" xmlns:xlink="http://www.w3.org/1999/xlink" x="0px" y="0px"
	 viewBox="0 0 25.6 30.3" style="enable-background:new 0 0 25.6 30.3;" xml:space="preserve">
<style type="text/css">
	.st0{fill:#5C1C72;}
</style>
<g>
	<path class="st0" d="M22.7,5.4h-8.3l4.5-4.6c0.2-0.2,0.2-0.5-0.1-0.7c-0.2-0.2-0.5-0.2-0.7,0L13,5.4L7.8,0.1C7.6,0,7.3,0,7.1,0.1
		s-0.2,0.5,0,0.7l4.5,4.6H2.9C1.3,5.4,0,6.7,0,8.3v19c0,1.6,1.3,2.9,2.9,2.9h0h19.7c1.6,0,2.9-1.3,2.9-2.9l0,0v-19
		C25.6,6.7,24.3,5.4,22.7,5.4z M24.6,27.4c0,1.1-0.9,1.9-1.9,1.9c0,0,0,0,0,0H2.9c-1.1,0-1.9-0.9-1.9-1.9l0,0v-19c0-1.1,0.8-2,1.9-2
		c0,0,0,0,0.1,0h19.7c1.1,0,1.9,0.9,1.9,1.9c0,0,0,0,0,0V27.4z"/>
	<path class="st0" d="M16.5,11.1c-0.2-0.2-0.5-0.2-0.7,0c0,0,0,0,0,0l-6.7,6.7c-0.2,0.2-0.2,0.5,0,0.7c0.1,0.1,0.2,0.1,0.3,0.1h5.5
		l-5.9,5.9c-0.2,0.2-0.2,0.5,0,0.7c0.2,0.2,0.5,0.2,0.7,0l6.7-6.7c0.2-0.2,0.2-0.5,0-0.7c-0.1-0.1-0.2-0.1-0.3-0.1h-5.5l5.9-5.9
		C16.7,11.6,16.7,11.3,16.5,11.1C16.5,11.1,16.5,11.1,16.5,11.1z"/>
</g>
</svg>
