<?xml version="1.0" encoding="utf-8"?>
<!-- Generator: Adobe Illustrator 24.3.0, SVG Export Plug-In . SVG Version: 6.00 Build 0)  -->
<svg version="1.1" id="Layer_1" xmlns="http://www.w3.org/2000/svg" xmlns:xlink="http://www.w3.org/1999/xlink" x="0px" y="0px"
	 viewBox="0 0 687 704" style="enable-background:new 0 0 687 704;" xml:space="preserve">
<style type="text/css">
	.st0{display:none;fill:#FFF;}
	.st1{fill:#FFF;}
</style>
<g>
	<g id="PXMU9d_1_">
		<g>
			<path class="st0" d="M721.6,754c-254.5,0-509,0-763.5,0c0-254.5,0-509,0-763.5c254.5,0,509,0,763.5,0
				C721.6,245,721.6,499.5,721.6,754z M339.9,333c-0.6-0.2-1.2-0.5-1.9-0.7c9.2-13.6,8.1-28.9,8.1-44.1c0-45.8,0-91.6-0.1-137.4
				c0-2.5,0.6-5.6-0.5-7.5c-1.6-2.5-4.4-4.6-7.1-5.8c-0.7-0.3-4.1,3.2-4.7,5.4c-1.7,6.6-2.4,13.5-3.8,20.2
				c-7.6,34.5-15.5,68.9-22.8,103.4c-5.4,25.5-10,51.2-15,76.9c-1.1-0.2-2.1-0.3-3.2-0.5c0.5-3.6,0.1-7.7,1.6-10.8
				c7-14.5,7.7-30.3,10.8-45.7c9.5-47.6,19.5-95,29.5-142.5c2-9.4,4.9-10.6,15.2-6.9c0-13.8,0.3-27.5-0.2-41.1
				c-0.1-3.5-2.1-7.5-4.4-10.2c-2-2.4-6-4.9-8.7-4.5c-2.7,0.4-5.7,3.9-7.1,6.8c-1.6,3.3-1.7,7.4-2.2,11.1
				c-3.6,27.5-6.1,55.3-16.1,81.3c-6.6,17-10.6,34.2-13.3,52.2C290,257.8,283,282.3,273,306c-0.3-2.3-0.2-4.5,0.5-6.6
				c3.3-10.7,7.4-21.1,9.9-32c5-21.8,8.4-43.9,13.7-65.6c4.3-17.4,10.9-34.3,15.8-51.6c2.1-7.5,2.8-15.5,4-23.3
				c1.2-7.5,2.1-15,3.2-22.6c-0.8-0.2-1.6-0.3-2.4-0.5c-10.5,41.6-20.7,83.2-31.6,124.7c-5.9,22.5-9.9,45.7-23.5,65.7
				c-3.2,4.8-4.4,11.5-4.9,17.4c-1.5,15.4-2.5,30.9-3.1,46.3c-0.9,22.9-7.8,44.4-14.5,66c-4.9,15.8-9.6,31.3-25.5,39.6
				c14.7,20.8,17.3,29.4,28.3,92.9c12.3-1.3,24.7-2.7,37-4c29-3.2,49.5-17.9,56.6-46.6c4.9-19.6,8.2-39.9,9-60.1
				c1.4-39.1,0.5-78.3,0.5-117.5c0-1-0.4-1.9-0.7-3.4C343.1,328,341.5,330.5,339.9,333z M377.3,103.9c-0.8,0.3-1.7,0.6-2.5,0.9
				c3.8,27.9,7.3,55.8,17.8,82.4c3.7,9.4,7.1,19.2,8.4,29.2c3.7,28.4,10.5,55.9,20.3,82.7c0.8,2.1,0.8,4.4,1.2,6.7
				c-0.8,0.2-1.5,0.3-2.3,0.5c-4.9-17.2-10.5-34.3-14.6-51.7c-3.9-16.3-5.5-33.1-9.5-49.3c-3-12.3-9.3-23.8-11.9-36.1
				c-5.2-24.8-8.8-50-13.3-75c-1.1-6-1.8-13.3-9.8-13.2c-7.6,0.1-9.7,7.1-11.9,13.2c-0.3,0.9-0.4,2-0.4,3c0,13.2,0,26.4,0,39.8
				c11.1-3.5,13.5-2.2,15.7,9.1c1.4,7.2,2.2,14.6,3.8,21.8c7.5,34.2,15.2,68.5,22.8,102.7c4.7,21.2,4.2,43.6,14,63.7
				c1.2,2.4,0.2,5.9,0.2,8.9c-5.4-16.5-9.2-33.2-12.8-49.9c-7.1-33-14.3-66-21.2-99.1c-3.4-16.4-6.1-33-9.6-49.4
				c-0.6-2.7-3.8-4.9-5.9-7.3c-2.3,2.9-4.9,5.7-6.7,8.9c-0.9,1.6-0.2,4-0.2,6c0,33.1-0.8,66.2,0.1,99.2c0.8,27.1-5.5,55,6.2,81.6
				c-1.8-2.6-3.6-5.2-5.7-8.3c0,10.7,0,20.7,0,30.8c-0.1,32.3-0.6,64.6,0,96.9c0.4,20.9,3.5,41.5,11.4,61.2
				c8.3,20.5,23.3,33.1,45,37c15.2,2.7,30.7,4,46.3,6c3-32.9,8.3-65,26.4-91c-6.4-8.6-13.9-15.7-17.5-24.4
				c-6.4-15.4-10.8-31.7-15.4-47.8c-2.1-7.3-3.2-14.9-3.8-22.4c-1.3-16.2-1.5-32.5-3.2-48.7c-1.1-9.7-2.1-20.5-6.9-28.6
				c-9.2-15.4-14.3-31.9-18.7-48.9C400.9,198,389.2,150.9,377.3,103.9z M41.2,487.4c12,59.7,23.9,118.4,35.8,177.7
				c3.1-1.6,5.3-2.7,7.5-3.9c46.7-25.4,93.2-51,140.1-75.9c10.2-5.4,14.5-12.9,14.7-23.6c0.6-29.7-5.7-58-18.7-84.7
				c-1.2-2.5-2.9-4.8-4.4-7.1c-3.7-5.5-8.2-7.7-15.5-6.5c-25.5,4.3-51.2,7.7-76.9,11.6C96.6,479,69.5,483.2,41.2,487.4z
				 M653.6,487.8c-2.6-0.5-4.3-1-6-1.2c-50.3-7.5-100.6-14.8-150.7-22.9c-9.8-1.6-15.7,1.1-20,9.1c-15.6,29.1-22.7,60.2-20.7,93.2
				c0.5,8,4.4,14,12,18.1c47.7,25.6,95.1,51.6,142.7,77.4c2.1,1.1,4.3,2.1,7.1,3.4C629.9,605.4,641.7,546.8,653.6,487.8z
				 M346.6,86.4c-0.7-6.1-0.1-11.5-2.2-15.6c-1.7-3.5-6.3-7-10.1-7.5c-2.5-0.4-7,3.9-8.5,7c-2.4,5.1-3.1,11.1-4.5,16.7
				C330.5,75.4,333.9,75.1,346.6,86.4z M348.6,84.6c4.9-2.4,9.4-6.3,13.5-6c3.9,0.3,7.5,5.1,11.3,7.9c-1.3-5-1.8-10.9-4.3-15.6
				c-1.8-3.5-7.1-8.3-9.4-7.6c-4,1.1-8,5.5-10.2,9.6C347.9,76.1,348.9,80.8,348.6,84.6z M668.8,737.9c2.8,2.9,4.7,4.8,6.5,6.7
				c1.4-2.3,3.9-4.6,4-7c0.1-2-2.5-4.1-3.9-6.2C673.5,733.2,671.6,735.1,668.8,737.9z M704.4,743.7c0.6,0.6,1.2,1.1,1.8,1.7
				c1.7-2.2,4.6-4.2,4.8-6.6c0.3-2.3-2.1-4.9-3.4-7.4c-1.4,0.8-2.9,1.5-4.3,2.3c1.7,2.3,3.3,4.6,5.3,7.3
				C707.6,741.6,706,742.7,704.4,743.7z"/>
			<path class="st1" d="M339.9,333c1.6-2.5,3.3-5,5.3-8.2c0.3,1.5,0.7,2.4,0.7,3.4c0,39.2,0.9,78.4-0.5,117.5
				c-0.7,20.1-4.1,40.5-9,60.1c-7.1,28.7-27.6,43.4-56.6,46.6c-12.3,1.4-24.7,2.7-37,4c-11-63.4-13.6-72-28.3-92.9
				c16-8.3,20.7-23.8,25.5-39.6c6.7-21.6,13.6-43.1,14.5-66c0.6-15.5,1.6-30.9,3.1-46.3c0.6-6,1.7-12.6,4.9-17.4
				c13.5-20,17.6-43.2,23.5-65.7c10.8-41.5,21.1-83.1,31.6-124.7c0.8,0.2,1.6,0.3,2.4,0.5c-1,7.5-2,15.1-3.2,22.6
				c-1.2,7.8-1.9,15.7-4,23.3c-4.9,17.3-11.5,34.2-15.8,51.6c-5.4,21.7-8.8,43.8-13.7,65.6c-2.5,10.8-6.6,21.3-9.9,32
				c-0.6,2.1-0.8,4.3-0.5,6.6c10-23.6,17-48.2,20.8-73.4c2.7-17.9,6.7-35.2,13.3-52.2c10.1-26,12.5-53.8,16.1-81.3
				c0.5-3.8,0.6-7.8,2.2-11.1c1.4-2.9,4.4-6.4,7.1-6.8c2.7-0.4,6.7,2.1,8.7,4.5c2.3,2.7,4.3,6.7,4.4,10.2
				c0.5,13.6,0.2,27.3,0.2,41.1c-10.3-3.7-13.2-2.5-15.2,6.9c-10,47.5-20,94.9-29.5,142.5c-3.1,15.4-3.8,31.2-10.8,45.7
				c-1.5,3.1-1.1,7.2-1.6,10.8c1.1,0.2,2.1,0.3,3.2,0.5c5-25.6,9.6-51.3,15-76.9c7.3-34.5,15.3-68.9,22.8-103.4
				c1.5-6.7,2.1-13.6,3.8-20.2c0.6-2.2,3.9-5.7,4.7-5.4c2.7,1.2,5.6,3.3,7.1,5.8c1.2,1.9,0.5,4.9,0.5,7.5c0,45.8,0.1,91.6,0.1,137.4
				c0,15.1,1.1,30.5-8.1,44.1C338.6,332.6,339.3,332.8,339.9,333z"/>
			<path class="st1" d="M377.3,103.9c11.9,47,23.6,94,35.6,141c4.4,17,9.5,33.5,18.7,48.9c4.8,8,5.8,18.8,6.9,28.6
				c1.8,16.1,1.9,32.5,3.2,48.7c0.6,7.5,1.7,15.2,3.8,22.4c4.6,16.1,9,32.4,15.4,47.8c3.6,8.7,11.2,15.8,17.5,24.4
				c-18,26-23.4,58.1-26.4,91c-15.6-2-31.1-3.3-46.3-6c-21.7-3.9-36.7-16.5-45-37c-7.9-19.6-11-40.3-11.4-61.2
				c-0.6-32.3-0.1-64.6,0-96.9c0-10,0-20.1,0-30.8c2.2,3.1,3.9,5.7,5.7,8.3c-11.7-26.6-5.5-54.4-6.2-81.6
				c-0.9-33.1-0.2-66.2-0.1-99.2c0-2-0.7-4.5,0.2-6c1.8-3.2,4.4-6,6.7-8.9c2,2.4,5.3,4.6,5.9,7.3c3.5,16.4,6.2,32.9,9.6,49.4
				c6.9,33.1,14,66.1,21.2,99.1c3.6,16.7,7.4,33.4,12.8,49.9c0-3,1-6.5-0.2-8.9c-9.8-20.2-9.3-42.5-14-63.7
				c-7.6-34.2-15.3-68.4-22.8-102.7c-1.6-7.2-2.4-14.6-3.8-21.8c-2.2-11.3-4.5-12.6-15.7-9.1c0-13.3,0-26.5,0-39.8
				c0-1,0.1-2.1,0.4-3c2.2-6,4.2-13.1,11.9-13.2c8-0.1,8.8,7.2,9.8,13.2c4.4,25,8,50.2,13.3,75c2.6,12.3,8.9,23.8,11.9,36.1
				c3.9,16.3,5.6,33.1,9.5,49.3c4.1,17.4,9.7,34.5,14.6,51.7c0.8-0.2,1.5-0.3,2.3-0.5c-0.4-2.2-0.5-4.6-1.2-6.7
				c-9.7-26.9-16.5-54.4-20.3-82.7c-1.3-9.9-4.6-19.8-8.4-29.2c-10.6-26.5-14.1-54.5-17.8-82.4C375.6,104.5,376.5,104.2,377.3,103.9
				z"/>
			<path class="st1" d="M41.2,487.4c28.3-4.3,55.4-8.4,82.5-12.5c25.6-3.8,51.3-7.3,76.9-11.6c7.3-1.2,11.8,1,15.5,6.5
				c1.6,2.3,3.2,4.6,4.4,7.1c13,26.7,19.4,55,18.7,84.7c-0.2,10.7-4.5,18.2-14.7,23.6c-46.9,24.9-93.4,50.5-140.1,75.9
				c-2.2,1.2-4.4,2.3-7.5,3.9C65.1,605.9,53.2,547.2,41.2,487.4z"/>
			<path class="st1" d="M653.6,487.8c-11.9,59-23.7,117.7-35.6,177.1c-2.8-1.3-5-2.3-7.1-3.4c-47.6-25.8-95-51.8-142.7-77.4
				c-7.6-4.1-11.5-10-12-18.1c-2-33,5.1-64.1,20.7-93.2c4.3-8,10.2-10.7,20-9.1c50.2,8.1,100.5,15.3,150.7,22.9
				C649.3,486.8,651,487.2,653.6,487.8z"/>
			<path class="st1" d="M346.6,86.4c-12.7-11.3-16.1-11-25.3,0.6c1.4-5.6,2.1-11.6,4.5-16.7c1.5-3.2,5.9-7.4,8.5-7
				c3.7,0.5,8.3,4,10.1,7.5C346.5,74.9,345.9,80.3,346.6,86.4z"/>
			<path class="st1" d="M348.6,84.6c0.2-3.8-0.8-8.5,1-11.7c2.2-4,6.1-8.4,10.2-9.6c2.4-0.7,7.6,4.1,9.4,7.6
				c2.5,4.8,3,10.6,4.3,15.6c-3.8-2.9-7.4-7.6-11.3-7.9C358,78.3,353.6,82.3,348.6,84.6z"/>
		</g>
	</g>
</g>
</svg>
