<svg width="95" height="99" viewBox="0 0 95 99" fill="none" xmlns="http://www.w3.org/2000/svg">
<path d="M24.1388 95.4797C13.8224 91.7531 6.3316 82.4799 3.36572 69.7636C2.0197 63.9922 1.63909 54.4554 2.75492 54.4554C3.12565 54.4554 4.11578 57.0723 4.95524 60.2706C6.79224 67.2692 9.92549 73.8505 12.9521 77.0674C17.9792 82.4108 30.4309 84.5036 37.6054 81.2108C43.1941 78.6459 45.4605 72.5496 43.0302 66.6185C41.1522 62.0354 36.8918 60.5029 28.9559 61.556C28.9559 61.556 24.0924 56.2639 22.5429 46.8661L27.528 47.323C33.5322 47.8734 38.0655 46.5317 40.4184 43.5081C42.6293 40.6667 42.5815 39.5678 40.1211 36.6764C36.5708 32.504 30.1959 33.5609 17.2886 40.462L10.776 29.4263L13.5063 27.3212C20.3485 22.0456 32.2289 19.4082 38.9901 21.6639C45.1486 23.7185 49.6688 31.871 48.4614 38.7458C47.645 43.3936 43.9582 49.9034 41.1099 51.7265L38.6535 53.2987L42.0465 54.8453C47.8123 57.4736 51.3322 55.4645 55.5377 47.1447C61.3576 35.6312 65.1323 32.6506 73.9097 32.6379C77.9966 32.6319 79.4512 33.0653 82.432 35.1769C89.8717 40.4472 93.9225 51.3606 93.0328 63.7358C91.9058 79.409 84.5617 88.9156 73.5808 88.9156C67.5543 88.9156 63.6699 86.7789 60.5778 81.7632C57.8619 77.3575 56.638 68.6319 58.1977 64.7935C58.946 62.952 59.0812 62.8896 59.1301 64.3627C59.22 67.0711 62.2682 71.4731 65.0666 72.9359C71.9326 76.5251 81.7894 72.0157 85.6891 63.5012C88.6498 57.0369 87.0614 44.568 82.9972 42.3693C82.1469 41.9093 80.0458 41.5329 78.3282 41.5329C74.677 41.5329 71.8097 44.1863 67.7896 51.2853C66.3998 53.7396 64.0608 56.9107 62.5919 58.3322C60.2053 60.6418 59.3531 60.9167 54.5799 60.9167H49.2384L50.9649 64.7935C53.4362 70.3425 53.3193 79.3585 50.7049 84.847C48.3947 89.6969 43.0532 94.6071 38.7829 95.8062C34.6259 96.9736 27.8564 96.8227 24.1388 95.4797ZM44.2534 20.4809C41.8905 16.4051 40.4363 8.79576 42.0203 8.79576C43.8809 12.8761 47.6949 16.5164 51.7788 19.0564C59.1138 22.6458 66.5514 21.197 74.6771 14.596C76.466 13.1429 78.0501 12.1156 78.1974 12.3132C80.1816 15.4258 83.6136 17.9693 84.7481 21.5863C84.7481 23.1123 78.2493 27.5044 73.1213 29.4438C60.4111 33.145 51.7606 31.6809 44.2534 20.4809ZM50.6585 11.0593L58.9334 1.78418L68.1294 10.3895C64.984 13.0084 62.7134 17.0726 59.1199 19.1338C56.2805 17.0179 52.0427 14.5231 50.6585 11.0593Z" fill="white"/>
</svg>
