<svg width="42" height="32" viewBox="0 0 42 32" fill="none" xmlns="http://www.w3.org/2000/svg">
<path d="M9.86 14.8648C8.38053 14.8698 6.92724 15.2555 5.64 15.9848C7.45231 11.2938 10.4581 7.15736 14.36 3.98479C14.5832 3.80094 14.7681 3.57492 14.904 3.31963C15.0399 3.06434 15.1242 2.78479 15.152 2.49692C15.1799 2.20906 15.1508 1.91853 15.0664 1.64192C14.9819 1.36531 14.8439 1.10804 14.66 0.884792C14.4762 0.661545 14.2501 0.476694 13.9948 0.340797C13.7396 0.2049 13.46 0.120618 13.1721 0.0927601C12.8843 0.0649025 12.5937 0.0940172 12.3171 0.17844C12.0405 0.262863 11.7832 0.400941 11.56 0.584791C3.56 7.08479 0 16.0848 0 21.6648C0.0137841 23.6378 0.60174 25.5641 1.69208 27.2084C2.78242 28.8528 4.32796 30.1442 6.14 30.9248C7.31272 31.4929 8.59697 31.7935 9.9 31.8048C11.0469 31.8605 12.1932 31.6828 13.2694 31.2823C14.3456 30.8818 15.3292 30.2669 16.1606 29.4749C16.992 28.6829 17.6539 27.7303 18.1062 26.6748C18.5585 25.6194 18.7917 24.4831 18.7917 23.3348C18.7917 22.1865 18.5585 21.0502 18.1062 19.9948C17.6539 18.9393 16.992 17.9867 16.1606 17.1947C15.3292 16.4027 14.3456 15.7878 13.2694 15.3873C12.1932 14.9868 11.0469 14.809 9.9 14.8648H9.86Z" fill="white"/>
<path d="M32.1398 14.8647C30.6601 14.8679 29.2063 15.2537 27.9198 15.9847C29.7314 11.2986 32.7293 7.16355 36.6198 3.98469C36.8633 3.80916 37.0683 3.58566 37.2222 3.32794C37.3761 3.07022 37.4756 2.78373 37.5147 2.4861C37.5537 2.18847 37.5314 1.886 37.4492 1.59731C37.367 1.30862 37.2265 1.03981 37.0365 0.807422C36.8465 0.575037 36.6109 0.383994 36.3443 0.246051C36.0777 0.108109 35.7857 0.0261855 35.4863 0.00532103C35.1868 -0.0155434 34.8863 0.025093 34.6031 0.124731C34.32 0.224368 34.0602 0.380898 33.8398 0.584688C25.8398 7.08469 22.2798 16.0847 22.2798 21.6647C22.2893 23.6153 22.8601 25.522 23.924 27.157C24.988 28.7919 26.5001 30.086 28.2798 30.8847C29.4822 31.4694 30.8027 31.7705 32.1398 31.7647C33.2867 31.8204 34.433 31.6427 35.5092 31.2422C36.5853 30.8417 37.569 30.2268 38.4004 29.4348C39.2318 28.6428 39.8937 27.6902 40.346 26.6347C40.7983 25.5793 41.0315 24.443 41.0315 23.2947C41.0315 22.1464 40.7983 21.0101 40.346 19.9546C39.8937 18.8992 39.2318 17.9466 38.4004 17.1546C37.569 16.3626 36.5853 15.7477 35.5092 15.3472C34.433 14.9467 33.2867 14.7689 32.1398 14.8247V14.8647Z" fill="white"/>
</svg>
