<svg width="42" height="32" viewBox="0 0 42 32" fill="none" xmlns="http://www.w3.org/2000/svg">
<path d="M31.1715 16.9502C32.651 16.9452 34.1043 16.5594 35.3915 15.8301C33.5792 20.5211 30.5734 24.6576 26.6715 27.8302C26.4482 28.014 26.2634 28.24 26.1275 28.4953C25.9916 28.7506 25.9073 29.0302 25.8795 29.318C25.8516 29.6059 25.8807 29.8964 25.9651 30.173C26.0496 30.4496 26.1876 30.7069 26.3715 30.9301C26.5553 31.1534 26.7814 31.3382 27.0367 31.4741C27.2919 31.61 27.5715 31.6943 27.8594 31.7222C28.1472 31.75 28.4378 31.7209 28.7144 31.6365C28.991 31.5521 29.2482 31.414 29.4715 31.2302C37.4715 24.7301 41.0315 15.7301 41.0315 10.1501C41.0177 8.17716 40.4298 6.25088 39.3394 4.6065C38.2491 2.96211 36.7035 1.67077 34.8915 0.890148C33.7188 0.322048 32.4345 0.0214777 31.1315 0.0101471C29.9846 -0.0456016 28.8383 0.132163 27.7621 0.532661C26.6859 0.93316 25.7023 1.54805 24.8709 2.34005C24.0395 3.13205 23.3775 4.08465 22.9253 5.14011C22.473 6.19556 22.2398 7.33187 22.2398 8.48015C22.2398 9.62842 22.473 10.7647 22.9253 11.8202C23.3775 12.8756 24.0395 13.8283 24.8709 14.6202C25.7023 15.4122 26.6859 16.0271 27.7621 16.4276C28.8383 16.8281 29.9846 17.0059 31.1315 16.9502H31.1715Z" fill="white"/>
<path d="M8.89171 16.9503C10.3714 16.9471 11.8252 16.5612 13.1117 15.8303C11.3001 20.5163 8.30221 24.6514 4.41171 27.8303C4.1682 28.0058 3.96319 28.2293 3.80929 28.487C3.65538 28.7447 3.55585 29.0312 3.51682 29.3288C3.47778 29.6265 3.50006 29.9289 3.5823 30.2176C3.66453 30.5063 3.80497 30.7751 3.99498 31.0075C4.18499 31.2399 4.42055 31.4309 4.68715 31.5689C4.95375 31.7068 5.24577 31.7888 5.54522 31.8096C5.84467 31.8305 6.14522 31.7898 6.42838 31.6902C6.71154 31.5906 6.97131 31.434 7.19171 31.2303C15.1917 24.7303 18.7517 15.7303 18.7517 10.1503C18.7422 8.19961 18.1714 6.29293 17.1075 4.65798C16.0435 3.02303 14.5314 1.72893 12.7517 0.930252C11.5493 0.345527 10.2287 0.0444698 8.89171 0.050251C7.74479 -0.00549771 6.59849 0.172267 5.52232 0.572765C4.44616 0.973264 3.46254 1.58815 2.63111 2.38015C1.79968 3.17215 1.13776 4.12476 0.685487 5.18021C0.233212 6.23566 4.93239e-06 7.37198 4.93239e-06 8.52025C4.93239e-06 9.66853 0.233212 10.8048 0.685487 11.8603C1.13776 12.9157 1.79968 13.8684 2.63111 14.6604C3.46254 15.4523 4.44616 16.0672 5.52232 16.4677C6.59849 16.8682 7.74479 17.046 8.89171 16.9903V16.9503Z" fill="white"/>
</svg>
