<svg width="72" height="72" viewBox="0 0 72 72" fill="none" xmlns="http://www.w3.org/2000/svg">
<path d="M23.7204 33.0997C22.2409 33.1047 20.7876 33.4904 19.5004 34.2197C21.3127 29.5287 24.3185 25.3922 28.2204 22.2197C28.4436 22.0358 28.6284 21.8098 28.7643 21.5545C28.9002 21.2992 28.9845 21.0196 29.0124 20.7318C29.0402 20.4439 29.0111 20.1534 28.9267 19.8768C28.8423 19.6002 28.7042 19.3429 28.5204 19.1197C28.3365 18.8964 28.1105 18.7116 27.8552 18.5757C27.5999 18.4398 27.3203 18.3555 27.0325 18.3276C26.7446 18.2998 26.4541 18.3289 26.1775 18.4133C25.9009 18.4977 25.6436 18.6358 25.4204 18.8197C17.4204 25.3197 13.8604 34.3197 13.8604 39.8997C13.8741 41.8726 14.4621 43.7989 15.5524 45.4433C16.6428 47.0877 18.1883 48.379 20.0004 49.1597C21.1731 49.7278 22.4573 50.0283 23.7604 50.0397C24.9073 50.0954 26.0536 49.9176 27.1297 49.5171C28.2059 49.1166 29.1895 48.5018 30.021 47.7098C30.8524 46.9178 31.5143 45.9652 31.9666 44.9097C32.4189 43.8542 32.6521 42.7179 32.6521 41.5697C32.6521 40.4214 32.4189 39.2851 31.9666 38.2296C31.5143 37.1742 30.8524 36.2216 30.021 35.4296C29.1895 34.6376 28.2059 34.0227 27.1297 33.6222C26.0536 33.2217 24.9073 33.0439 23.7604 33.0997H23.7204Z" fill="white"/>
<path d="M45.9996 33.1C44.5199 33.1032 43.0662 33.4891 41.7796 34.22C43.5912 29.534 46.5891 25.3989 50.4796 22.22C50.7232 22.0445 50.9282 21.821 51.0821 21.5633C51.236 21.3056 51.3355 21.0191 51.3745 20.7215C51.4136 20.4238 51.3913 20.1214 51.3091 19.8327C51.2268 19.544 51.0864 19.2752 50.8964 19.0428C50.7064 18.8104 50.4708 18.6193 50.2042 18.4814C49.9376 18.3435 49.6456 18.2615 49.3461 18.2407C49.0467 18.2198 48.7461 18.2604 48.463 18.3601C48.1798 18.4597 47.92 18.6162 47.6996 18.82C39.6996 25.32 36.1396 34.32 36.1396 39.9C36.1491 41.8507 36.7199 43.7574 37.7839 45.3923C38.8479 47.0273 40.36 48.3214 42.1396 49.12C43.3421 49.7048 44.6626 50.0058 45.9996 50C47.1466 50.0558 48.2929 49.878 49.369 49.4775C50.4452 49.077 51.4288 48.4621 52.2602 47.6701C53.0917 46.8781 53.7536 45.9255 54.2059 44.8701C54.6581 43.8146 54.8914 42.6783 54.8914 41.53C54.8914 40.3818 54.6581 39.2455 54.2059 38.19C53.7536 37.1345 53.0917 36.1819 52.2602 35.3899C51.4288 34.5979 50.4452 33.9831 49.369 33.5826C48.2929 33.1821 47.1466 33.0043 45.9996 33.06V33.1Z" fill="white"/>
</svg>
