<svg fill="#000" id="Capa_1" enable-background="new 0 0 512 512" height="512" viewBox="0 0 512 512" width="512" xmlns="http://www.w3.org/2000/svg"><g><path d="m174.058 137.228c-3.635-2.002-8.205-.677-10.207 2.958-8.48 15.399-12.962 32.886-12.962 50.57 0 57.882 47.09 104.972 104.972 104.972s104.973-47.091 104.973-104.972c0-57.882-47.091-104.973-104.973-104.973-26.991 0-52.638 10.224-72.216 28.788-3.011 2.856-3.138 7.612-.282 10.624 2.855 3.011 7.611 3.138 10.624.282 16.774-15.905 38.748-24.664 61.875-24.664 49.595 0 89.943 40.348 89.943 89.943 0 49.594-40.348 89.943-89.943 89.943-49.594 0-89.943-40.348-89.943-89.943 0-15.156 3.838-30.135 11.098-43.32 2.001-3.636.676-8.206-2.959-10.208z"/><path d="m233.356 247.075c2.783 0 5.555-.799 7.904-2.293l61.59-39.007c4.3-2.723 6.868-7.388 6.868-12.478 0-5.091-2.568-9.755-6.868-12.479l-61.59-39.008c-4.73-2.994-10.906-3.027-15.668-.085-4.315 2.666-7.006 7.492-7.006 12.564v78.014c0 8.042 6.713 14.772 14.77 14.772zm.259-92.315 60.848 38.537-60.848 38.537zm-.397 77.326-.008.004c.003-.001.005-.002.008-.004z"/><path d="m474.398 29.854h-99.378c-4.151 0-7.515 3.365-7.515 7.515s3.364 7.515 7.515 7.515h99.378c12.446 0 22.572 10.126 22.572 22.572v265.964h-394.064c-4.15 0-7.515 3.364-7.515 7.515s3.365 7.515 7.515 7.515h394.065v31.133c0 12.446-10.126 22.572-22.572 22.572h-192.067c-4.151 0-7.515 3.365-7.515 7.515s3.364 7.515 7.515 7.515h27.009l13.285 49.933h-133.252l13.285-49.933h49.613c4.15 0 7.515-3.365 7.515-7.515s-3.365-7.515-7.515-7.515h-214.671c-12.446 0-22.572-10.126-22.572-22.572v-31.133h57.817c4.15 0 7.515-3.364 7.515-7.515s-3.364-7.515-7.515-7.515h-57.817v-265.964c0-12.446 10.126-22.572 22.572-22.572h307.361c4.151 0 7.515-3.365 7.515-7.515s-3.364-7.515-7.515-7.515h-307.361c-20.733 0-37.601 16.868-37.601 37.602v312.127c0 20.733 16.868 37.601 37.601 37.601h149.506l-13.285 49.933h-25.372c-4.15 0-7.515 3.365-7.515 7.515s3.365 7.515 7.515 7.515h215.1c4.151 0 7.515-3.365 7.515-7.515s-3.364-7.515-7.515-7.515h-25.372l-13.285-49.933h149.505c20.734 0 37.602-16.868 37.602-37.601v-312.127c0-20.734-16.868-37.602-37.602-37.602z"/></g></svg>