<svg xmlns="http://www.w3.org/2000/svg" xmlns:xlink="http://www.w3.org/1999/xlink" version="1.1" x="0px" y="0px" viewBox="0 0 58 57.5" enable-background="new 0 0 58 46" xml:space="preserve"><g><path fill="#852b5f" d="M36.54,22.16l-11-7c-0.31-0.2-0.7-0.21-1.02-0.03C24.2,15.3,24,15.63,24,16v14c0,0.37,0.2,0.7,0.52,0.88   C24.67,30.96,24.83,31,25,31c0.19,0,0.37-0.05,0.54-0.16l11-7C36.83,23.66,37,23.34,37,23S36.83,22.34,36.54,22.16z M26,28.18   V17.82L34.14,23L26,28.18z"/><path fill="#852b5f" d="M57,0H47H11H1C0.45,0,0,0.45,0,1v11v11v11v11c0,0.55,0.45,1,1,1h10h36h10c0.55,0,1-0.45,1-1V34V23V12V1   C58,0.45,57.55,0,57,0z M10,22H2v-9h8V22z M2,24h8v9H2V24z M12,34V23V12V2h34v10v11v11v10H12V34z M56,22h-8v-9h8V22z M48,24h8v9h-8   V24z M56,2v9h-8V2H56z M2,2h8v9H2V2z M2,44v-9h8v9H2z M56,44h-8v-9h8V44z"/></g><text x="0" y="61" fill="#852b5f" font-size="5px" font-weight="bold" font-family="'Helvetica Neue', Helvetica, Arial-Unicode, Arial, Sans-serif">Created by Ben Davis</text><text x="0" y="66" fill="#852b5f" font-size="5px" font-weight="bold" font-family="'Helvetica Neue', Helvetica, Arial-Unicode, Arial, Sans-serif">from the Noun Project</text></svg>