<svg xmlns="http://www.w3.org/2000/svg" xmlns:xlink="http://www.w3.org/1999/xlink" viewBox="0 0 48 60" version="1.1" x="0px" y="0px"><title>CE</title><desc>Created with Sketch.</desc><g stroke="none" stroke-width="1" fill="none" fill-rule="evenodd"><path d="M27.0289236,23 L44,23 C44.5522847,23 45,23.4477153 45,24 C45,24.5522847 44.5522847,25 44,25 L27.0289236,25 C27.5465414,33.9233795 34.946854,41 44,41 C44.5522847,41 45,41.4477153 45,42 C45,42.5522847 44.5522847,43 44,43 C33.5065898,43 25,34.4934102 25,24 C25,13.5065898 33.5065898,5 44,5 C44.5522847,5 45,5.44771525 45,6 C45,6.55228475 44.5522847,7 44,7 C34.946854,7 27.5465414,14.0766205 27.0289236,23 Z M22,5 C22.5522847,5 23,5.44771525 23,6 C23,6.55228475 22.5522847,7 22,7 C12.6111593,7 5,14.6111593 5,24 C5,33.3888407 12.6111593,41 22,41 C22.5522847,41 23,41.4477153 23,42 C23,42.5522847 22.5522847,43 22,43 C11.5065898,43 3,34.4934102 3,24 C3,13.5065898 11.5065898,5 22,5 Z" fill="#000000" fill-rule="nonzero"/></g><text x="0" y="63" fill="#000000" font-size="5px" font-weight="bold" font-family="'Helvetica Neue', Helvetica, Arial-Unicode, Arial, Sans-serif">Created by Paulius B.</text><text x="0" y="68" fill="#000000" font-size="5px" font-weight="bold" font-family="'Helvetica Neue', Helvetica, Arial-Unicode, Arial, Sans-serif">from the Noun Project</text></svg>