<?xml version="1.0" encoding="iso-8859-1"?>
<!-- Generator: Adobe Illustrator 19.0.0, SVG Export Plug-In . SVG Version: 6.00 Build 0)  -->
<svg fill="#FFF" version="1.1" id="Capa_1" xmlns="http://www.w3.org/2000/svg" xmlns:xlink="http://www.w3.org/1999/xlink" x="0px" y="0px"
	 viewBox="0 0 330 330" style="enable-background:new 0 0 330 330;" xml:space="preserve">
<g>
	<g>
		<g>
			<path d="M276.6,126.4h-38.4V70c0-38.8-32.8-70-73.2-70S91.8,31.6,91.8,70v56.8H53.4c-3.6,0-6.4,2.8-6.4,6.4v153.6
				c0,23.6,19.2,43.2,42.8,43.2h150c23.6,0,43.2-19.2,43.2-43.2v-154C283,129.2,280.2,126.4,276.6,126.4z M104.6,70
				c0-31.6,27.2-57.2,60.4-57.2s60.4,25.6,60.4,57.2v56.8H104.6V70z M270.2,286.8c0,16.8-13.6,30-30,30H89.8c-16.8,0-30-13.6-30-30
				V139.6h210.4V286.8z"/>
			<path d="M158.6,241.2v34.4c0,3.6,2.8,6.4,6.4,6.4s6.4-2.8,6.4-6.4v-34.4c16.8-3.2,29.2-17.6,29.2-35.2c0-19.6-16-35.6-35.6-35.6
				c-19.6,0-35.6,16-35.6,35.6C129.4,223.6,141.8,238.4,158.6,241.2z M165,183.2c12.8,0,22.8,10.4,22.8,22.8
				c0,12.4-10.4,22.8-22.8,22.8s-22.8-10.4-22.8-22.8C142.2,193.6,152.2,183.2,165,183.2z"/>
		</g>
	</g>
</g>
<g>
</g>
<g>
</g>
<g>
</g>
<g>
</g>
<g>
</g>
<g>
</g>
<g>
</g>
<g>
</g>
<g>
</g>
<g>
</g>
<g>
</g>
<g>
</g>
<g>
</g>
<g>
</g>
<g>
</g>
</svg>
